<svg width="13" height="13" viewBox="0 0 13 13" fill="none" xmlns="http://www.w3.org/2000/svg">
<path d="M12.4594 7.60568C11.8941 10.2536 9.31557 12.1379 6.63788 12.1379C5.88416 12.1379 5.66598 11.7313 5.66598 11.2454C5.66598 10.9478 5.66598 10.5511 5.66598 10.0553C5.66598 8.86519 5.66598 7.47676 5.66598 6.98089C5.66598 6.25692 6.11226 5.92965 6.6478 5.92965C7.24284 5.92965 7.60978 6.26684 7.59986 6.98089C7.62962 7.6751 7.62962 8.96436 7.62962 10.1049C8.22466 9.95609 8.8197 9.65857 9.21639 9.25196C10.109 8.56767 10.704 7.37758 10.6842 6.13791C10.6742 5.39411 10.5056 4.60072 10.0495 3.99576C9.01805 2.61725 8.22466 2.22056 6.63788 2.17097C5.4478 2.12138 4.29738 2.70651 3.5635 3.59907C2.67094 4.79907 2.52218 5.8999 2.77011 7.08006C2.98829 8.0718 3.5635 8.86519 4.35689 9.46023C5.0511 9.95609 4.95193 10.452 4.65441 10.8487C4.05937 11.7412 3.26598 11.1462 2.77011 10.6999C1.6792 9.80733 0.984988 8.51808 0.786641 7.12965C0.48912 4.84866 1.18334 3.06353 2.77011 1.6751C3.16681 1.27841 3.66267 0.980888 4.15854 0.732955C4.95193 0.385847 5.74532 0.1875 6.63788 0.1875C8.91887 0.237087 10.3073 1.22882 11.3585 2.46849C12.5883 4.10486 12.8858 5.79081 12.4594 7.62552V7.60568Z" fill="#868686"/>
</svg>
